<?xml version="1.0" encoding="UTF-8"?>
<svg width="567px" height="166px" viewBox="0 0 567 166" version="1.1" xmlns="http://www.w3.org/2000/svg" xmlns:xlink="http://www.w3.org/1999/xlink">
    <title>Logo-DVBern</title>
    <g id="Logo-DVBern" stroke="none" stroke-width="1" fill="none" fill-rule="evenodd">
        <g id="DVBERN_Logo_mit_Claim_rgb_POS_RZ" transform="translate(0.000000, -0.000000)" fill-rule="nonzero">
            <path d="M73,82.1 L73,42.2 C73,40 71.5,38.9 68.4,38.9 L33.9,38.9 C23.8,38.9 18.7,42.7 18.7,50.3 L18.7,81.2 C18.7,85.2 19.7,87.9 21.6,89.5 C24.2,91.6 28.3,92.6 33.9,92.6 L56.6,92.6 C67.5,92.6 73,89.1 73,82.1 M91.7,0 L91.7,84 C91.7,92 88.8,97.8 82.9,101.2 C77,104.7 69.9,106.401014 61.5,106.401014 L28.5,106.401014 C9.5,106.5 0,99.2 0,84.7 L0,46.4 C0,39.9 2.5,34.7 7.6,30.8 C12.7,26.9 19.6,25 28.3,25 L73,25 L73,0 L91.7,0 Z" id="Shape" fill="#FFA100"></path>
            <path d="M247.4,92.6 L270.1,92.6 C275.7,92.6 279.8,91.6 282.4,89.5 C284.3,87.9 285.3,85.2 285.3,81.2 L285.3,50.3 C285.3,42.7 280.2,38.9 270.1,38.9 L235.6,38.9 C232.6,38.9 231,40 231,42.2 L231,82.1 C231.1,89.1 236.5,92.6 247.4,92.6 M231.1,0 L231.1,25 L275.8,25 C284.5,25 291.4,26.9 296.5,30.8 C301.6,34.7 304.1,39.9 304.1,46.4 L304.1,84.7 C304.1,99.2 294.6,106.5 275.6,106.5 L242.6,106.5 C234.2,106.5 227.1,104.8 221.2,101.3 C215.3,97.8 212.4,92.1 212.4,84.1 L212.4,0 L231.1,0 Z" id="Shape" fill="#031E2F"></path>
            <path d="M206.4,25.4 L164.4,101 C161.9,105.5 157.7,107.7 151.7,107.7 C145.7,107.7 141.5,105.5 139,101 L96.8,25.4 L116.2,25.4 L151.5,89 L187.2,25.4 L206.4,25.4 Z" id="Path" fill="#FFA100"></path>
            <path d="M387.8,50.3 L387.8,48.1 C387.8,42 382.8,39 372.9,39 L352.3,39 C340.8,39 335.1,42.4 335.1,49.3 L335.1,66 L387.8,50.3 Z M406.9,58.1 L335.2,79.3 L335.2,82 C335.2,86.2 336.8,89.2 340,91.1 C342.2,92.2 346,92.8 351.4,92.8 L406.7,92.8 L406.7,106.5 L347.9,106.5 C337.8,106.5 330.3,105 325.5,101.9 C319.4,98.3 316.4,92.5 316.4,84.7 L316.4,45.3 C316.4,31.8 326.4,25 346.3,25 L379.2,25 C397.8,25 407.1,32.2 407.1,46.6 L407.1,58.1 L406.9,58.1 Z" id="Shape" fill="#031E2F"></path>
            <path d="M469.4,38.9 C454.9,38.9 446.5,39.2 444.2,39.8 C439.2,41.3 436.8,44.9 436.8,50.5 L436.8,106 L418,106 L418,46.6 C418,32.2 427.5,25 447.7,25 L469.4,25 L469.4,38.9 Z" id="Path" fill="#031E2F"></path>
            <path d="M548.1,106.3 L548.1,51.1 C548.1,42.9 542.9,38.9 532.4,38.9 L511.6,38.9 C501,38.9 495.6,43 495.6,51.1 L495.6,106.2 L476.9,106.2 L476.9,49.5 C476.9,33.2 486.4,25 505.4,25 L538.6,25 C557.5,25 566.9,33.2 566.9,49.5 L566.9,106.3 L548.1,106.3 Z" id="Path" fill="#031E2F"></path>
            <g id="Group" transform="translate(212.500000, 135.500000)" fill="#031E2F">
                <path d="M0,0.6 L12.3,0.6 C14.6,0.6 16.5,1 18.2,1.8 C19.9,2.6 21.2,3.6 22.3,5 C23.3,6.3 24.1,7.9 24.6,9.7 C25.1,11.5 25.4,13.4 25.4,15.5 C25.4,17.5 25.1,19.5 24.6,21.3 C24.1,23.1 23.3,24.7 22.3,26 C21.3,27.3 19.9,28.4 18.2,29.2 C16.5,30 14.6,30.4 12.3,30.4 L0,30.4 L0,0.6 Z M5.1,26 L10.2,26 C12.2,26 13.9,25.7 15.1,25.2 C16.4,24.7 17.4,23.9 18.1,23 C18.8,22 19.3,20.9 19.6,19.6 C19.9,18.3 20,16.9 20,15.4 C20,13.9 19.9,12.5 19.6,11.2 C19.3,9.9 18.8,8.8 18.1,7.8 C17.4,6.8 16.4,6.1 15.1,5.6 C13.8,5.1 12.2,4.8 10.2,4.8 L5.1,4.8 L5.1,26 Z" id="Shape"></path>
                <polygon id="Path" points="35 0.6 40.2 0.6 40.2 30.2 35 30.2"></polygon>
                <path d="M77.2,30.2 L73.9,30.2 L73.1,26.7 C71.7,28.3 70.3,29.4 69,30 C67.6,30.6 66,30.9 64.2,30.9 C62,30.9 60,30.5 58.3,29.7 C56.5,28.9 55.1,27.8 53.8,26.4 C52.6,25 51.7,23.3 51,21.5 C50.4,19.6 50,17.6 50,15.5 C50,13.4 50.3,11.4 51,9.5 C51.6,7.6 52.6,6 53.8,4.6 C55,3.2 56.5,2.1 58.3,1.2 C60.1,0.4 62,0 64.2,0 C65.8,0 67.3,0.2 68.8,0.6 C70.2,1 71.5,1.7 72.7,2.5 C73.8,3.3 74.8,4.4 75.5,5.7 C76.2,7 76.7,8.4 76.9,10.1 L71.8,10.1 C71.7,9.1 71.4,8.3 70.9,7.6 C70.4,6.9 69.9,6.3 69.2,5.8 C68.5,5.3 67.7,4.9 66.9,4.7 C66,4.5 65.1,4.3 64.2,4.3 C62.6,4.3 61.3,4.6 60.1,5.3 C59,5.9 58,6.8 57.3,7.8 C56.6,8.9 56.1,10.1 55.7,11.4 C55.4,12.8 55.2,14.1 55.2,15.5 C55.2,16.9 55.4,18.3 55.7,19.6 C56,21 56.6,22.2 57.3,23.2 C58,24.3 58.9,25.1 60.1,25.7 C61.2,26.3 62.6,26.7 64.2,26.7 C65.5,26.7 66.7,26.6 67.7,26.2 C68.7,25.8 69.6,25.3 70.3,24.6 C71,23.9 71.5,23 71.9,22 C72.3,21 72.5,19.8 72.5,18.6 L64.6,18.6 L64.6,14.7 L77.2,14.7 L77.2,30.2 L77.2,30.2 Z" id="Path"></path>
                <polygon id="Path" points="88 0.6 93.2 0.6 93.2 30.2 88 30.2"></polygon>
                <polygon id="Path" points="101.5 0.6 125.4 0.6 125.4 5.1 116 5.1 116 30.2 110.8 30.2 110.8 5.1 101.5 5.1"></polygon>
                <path d="M138.5,0.6 L144,0.6 L155.4,30.2 L149.9,30.2 L147.1,22.4 L135.3,22.4 L132.5,30.2 L127.2,30.2 L138.5,0.6 Z M136.7,18.4 L145.7,18.4 L141.3,5.7 L141.2,5.7 L136.7,18.4 Z" id="Shape"></path>
                <polygon id="Path" points="163.4 0.6 168.6 0.6 168.6 25.7 183.6 25.7 183.6 30.2 163.4 30.2"></polygon>
                <polygon id="Path" points="204.5 0.6 209.9 0.6 217.3 24 217.4 24 225 0.6 230.3 0.6 220.2 30.2 214.4 30.2"></polygon>
                <path d="M244.8,0.6 L250.3,0.6 L261.7,30.2 L256.2,30.2 L253.4,22.4 L241.5,22.4 L238.7,30.2 L233.4,30.2 L244.8,0.6 Z M242.9,18.4 L251.9,18.4 L247.5,5.7 L247.4,5.7 L242.9,18.4 Z" id="Shape"></path>
                <polygon id="Path" points="270.3 0.6 275.5 0.6 275.5 25.7 290.5 25.7 290.5 30.2 270.3 30.2"></polygon>
                <path d="M297.6,0.6 L302.8,0.6 L302.8,17.8 C302.8,18.8 302.8,19.8 302.9,20.8 C303,21.8 303.3,22.7 303.7,23.6 C304.2,24.4 304.8,25.1 305.8,25.6 C306.7,26.1 308,26.4 309.7,26.4 C311.4,26.4 312.7,26.1 313.6,25.6 C314.5,25.1 315.2,24.4 315.7,23.6 C316.2,22.8 316.4,21.9 316.5,20.8 C316.6,19.8 316.6,18.8 316.6,17.8 L316.6,0.6 L321.8,0.6 L321.8,19.5 C321.8,21.4 321.5,23.1 320.9,24.5 C320.3,25.9 319.5,27.1 318.4,28 C317.3,29 316.1,29.7 314.6,30.1 C313.1,30.6 311.5,30.8 309.6,30.8 C307.7,30.8 306.1,30.6 304.6,30.1 C303.1,29.6 301.8,28.9 300.8,28 C299.7,27 298.9,25.9 298.3,24.5 C297.7,23.1 297.4,21.4 297.4,19.5 L297.4,0.6 L297.6,0.6 Z" id="Path"></path>
                <polygon id="Path" points="332.9 0.6 354.2 0.6 354.2 5.1 338.1 5.1 338.1 12.8 353 12.8 353 17 338.1 17 338.1 25.7 354.5 25.7 354.5 30.2 332.9 30.2 332.9 0.6"></polygon>
            </g>
        </g>
    </g>
</svg>