<svg width="205.9" height="205" xmlns="http://www.w3.org/2000/svg" xml:space="preserve" version="1.1">

 <g>
  <title>Layer 1</title>
  <path stroke="null" id="svg_2" fill="#FFA100" d="m74.87123,124.1l0,-39.9c0,-2.2 -1.49735,-3.3 -4.59189,-3.3l-34.43914,0c-10.08218,0 -15.17319,3.8 -15.17319,11.4l0,30.9c0,4 0.99824,6.7 2.89488,8.3c2.59541,2.1 6.68818,3.1 12.2783,3.1l22.65996,0c10.88077,0 16.37107,-3.5 16.37107,-10.5m18.66701,-82.1l0,84c0,8 -2.89488,13.8 -8.78448,17.2c-5.88959,3.5 -12.97707,5.2 -21.36225,5.2l-32.94179,0c-18.96648,0.1 -28.44973,-7.2 -28.44973,-21.7l0,-38.3c0,-6.5 2.49559,-11.7 7.58659,-15.6c5.091,-3.9 11.97883,-5.8 20.66349,-5.8l44.62115,0l0,-25l18.66701,0z" class="st0"/>
  <path stroke="null" id="svg_4" fill="#FFA100" d="m206.03591,67.4l-41.92591,75.6c-2.49559,4.5 -6.68818,6.7 -12.6776,6.7c-5.98942,0 -10.18201,-2.2 -12.6776,-6.7l-42.12556,-75.6l19.36578,0l35.23773,63.6l35.63703,-63.6l19.16613,0z" class="st0"/>
 </g>
</svg>