<?xml version="1.0" encoding="UTF-8" standalone="no"?>
<!DOCTYPE svg PUBLIC "-//W3C//DTD SVG 1.1//EN" "http://www.w3.org/Graphics/SVG/1.1/DTD/svg11.dtd">
<!-- Generated by graphviz version 2.40.1 (20161225.0304)
 -->
<!-- Title: G Pages: 1 -->
<svg width="1699pt" height="843pt" viewBox="0.00 0.00 1698.84 843.20" xmlns="http://www.w3.org/2000/svg" xmlns:xlink="http://www.w3.org/1999/xlink">
<g id="graph0" class="graph" transform="scale(1 1) rotate(0) translate(4 839.2)">
<title>G</title>
<polygon fill="#ffffff" stroke="transparent" points="-4,4 -4,-839.2 1694.8388,-839.2 1694.8388,4 -4,4"/>
<!-- VERFUEGT -->
<g id="node1" class="node">
<title>VERFUEGT</title>
<ellipse fill="none" stroke="#000000" cx="1071" cy="-195.6" rx="61.4147" ry="18"/>
<text text-anchor="middle" x="1071" y="-191.4" font-family="Times,serif" font-size="14.00" fill="#000000">VERFUEGT</text>
</g>
<!-- NEGATIVER_ENTSCHEID -->
<g id="node2" class="node">
<title>NEGATIVER_ENTSCHEID</title>
<ellipse fill="none" stroke="#000000" cx="906" cy="-106.8" rx="124.9791" ry="18"/>
<text text-anchor="middle" x="906" y="-102.6" font-family="Times,serif" font-size="14.00" fill="#000000">NEGATIVER_ENTSCHEID</text>
</g>
<!-- VERFUEGT&#45;&gt;NEGATIVER_ENTSCHEID -->
<g id="edge1" class="edge">
<title>VERFUEGT-&gt;NEGATIVER_ENTSCHEID</title>
<path fill="none" stroke="#000000" d="M1016.5173,-187.1194C993.9944,-181.7835 968.46,-173.2213 948.1612,-159.6 938.0187,-152.794 929.1519,-142.7895 922.201,-133.3143"/>
<polygon fill="#000000" stroke="#000000" points="924.934,-131.1123 916.3745,-124.8684 919.1721,-135.0873 924.934,-131.1123"/>
<text text-anchor="middle" x="1031.4194" y="-147" font-family="Times,serif" font-size="14.00" fill="#000000">NEGATIVER_ENTSCHEID</text>
</g>
<!-- STIPENDIUM_AKZEPTIERT -->
<g id="node3" class="node">
<title>STIPENDIUM_AKZEPTIERT</title>
<ellipse fill="none" stroke="#000000" cx="1182" cy="-106.8" rx="132.5829" ry="18"/>
<text text-anchor="middle" x="1182" y="-102.6" font-family="Times,serif" font-size="14.00" fill="#000000">STIPENDIUM_AKZEPTIERT</text>
</g>
<!-- VERFUEGT&#45;&gt;STIPENDIUM_AKZEPTIERT -->
<g id="edge2" class="edge">
<title>VERFUEGT-&gt;STIPENDIUM_AKZEPTIERT</title>
<path fill="none" stroke="#000000" d="M1092.1395,-178.6884C1109.0158,-165.1873 1132.8803,-146.0957 1151.7751,-130.98"/>
<polygon fill="#000000" stroke="#000000" points="1154.1758,-133.5416 1159.798,-124.5616 1149.8029,-128.0755 1154.1758,-133.5416"/>
<text text-anchor="middle" x="1225.256" y="-147" font-family="Times,serif" font-size="14.00" fill="#000000">STIPENDIUM_AKZEPTIERT</text>
</g>
<!-- STIPENDIUM_AUSBEZAHLT -->
<g id="node16" class="node">
<title>STIPENDIUM_AUSBEZAHLT</title>
<ellipse fill="none" stroke="#000000" cx="1182" cy="-18" rx="137.7396" ry="18"/>
<text text-anchor="middle" x="1182" y="-13.8" font-family="Times,serif" font-size="14.00" fill="#000000">STIPENDIUM_AUSBEZAHLT</text>
</g>
<!-- STIPENDIUM_AKZEPTIERT&#45;&gt;STIPENDIUM_AUSBEZAHLT -->
<g id="edge22" class="edge">
<title>STIPENDIUM_AKZEPTIERT-&gt;STIPENDIUM_AUSBEZAHLT</title>
<path fill="none" stroke="#000000" d="M1182,-88.4006C1182,-76.2949 1182,-60.2076 1182,-46.4674"/>
<polygon fill="#000000" stroke="#000000" points="1185.5001,-46.072 1182,-36.072 1178.5001,-46.0721 1185.5001,-46.072"/>
<text text-anchor="middle" x="1273.756" y="-58.2" font-family="Times,serif" font-size="14.00" fill="#000000">STIPENDIUM_AUSBEZAHLT</text>
</g>
<!-- ZURUECKGEWIESEN -->
<g id="node4" class="node">
<title>ZURUECKGEWIESEN</title>
<ellipse fill="none" stroke="#000000" cx="1392" cy="-284.4" rx="105.9382" ry="18"/>
<text text-anchor="middle" x="1392" y="-280.2" font-family="Times,serif" font-size="14.00" fill="#000000">ZURUECKGEWIESEN</text>
</g>
<!-- IN_BEARBEITUNG_SB -->
<g id="node5" class="node">
<title>IN_BEARBEITUNG_SB</title>
<ellipse fill="none" stroke="#000000" cx="956" cy="-462" rx="110.6148" ry="18"/>
<text text-anchor="middle" x="956" y="-457.8" font-family="Times,serif" font-size="14.00" fill="#000000">IN_BEARBEITUNG_SB</text>
</g>
<!-- ZURUECKGEWIESEN&#45;&gt;IN_BEARBEITUNG_SB -->
<g id="edge3" class="edge">
<title>ZURUECKGEWIESEN-&gt;IN_BEARBEITUNG_SB</title>
<path fill="none" stroke="#000000" d="M1377.541,-302.2573C1367.6593,-313.5191 1353.7257,-327.6818 1339,-337.2 1247.1916,-396.5416 1124.7039,-429.9449 1043.2321,-446.9611"/>
<polygon fill="#000000" stroke="#000000" points="1042.1034,-443.6196 1033.0092,-449.0553 1043.5082,-450.4772 1042.1034,-443.6196"/>
<text text-anchor="middle" x="1367.2609" y="-369" font-family="Times,serif" font-size="14.00" fill="#000000">IN_BEARBEITUNG</text>
</g>
<!-- ABKLAERUNG_MIT_GS -->
<g id="node11" class="node">
<title>ABKLAERUNG_MIT_GS</title>
<ellipse fill="none" stroke="#000000" cx="655" cy="-284.4" rx="117.478" ry="18"/>
<text text-anchor="middle" x="655" y="-280.2" font-family="Times,serif" font-size="14.00" fill="#000000">ABKLAERUNG_MIT_GS</text>
</g>
<!-- IN_BEARBEITUNG_SB&#45;&gt;ABKLAERUNG_MIT_GS -->
<g id="edge17" class="edge">
<title>IN_BEARBEITUNG_SB-&gt;ABKLAERUNG_MIT_GS</title>
<path fill="none" stroke="#000000" d="M881.6376,-448.6183C799.9365,-433.2009 678.3128,-407.8568 664.035,-391.2 645.762,-369.8823 645.8909,-336.591 649.0773,-312.847"/>
<polygon fill="#000000" stroke="#000000" points="652.579,-313.1139 650.7013,-302.6868 645.6667,-312.009 652.579,-313.1139"/>
<text text-anchor="middle" x="741.9825" y="-369" font-family="Times,serif" font-size="14.00" fill="#000000">ABKLAERUNG_MIT_GS</text>
</g>
<!-- FEHLENDE_DOKUMENTE -->
<g id="node12" class="node">
<title>FEHLENDE_DOKUMENTE</title>
<ellipse fill="none" stroke="#000000" cx="472" cy="-195.6" rx="126.7683" ry="18"/>
<text text-anchor="middle" x="472" y="-191.4" font-family="Times,serif" font-size="14.00" fill="#000000">FEHLENDE_DOKUMENTE</text>
</g>
<!-- IN_BEARBEITUNG_SB&#45;&gt;FEHLENDE_DOKUMENTE -->
<g id="edge18" class="edge">
<title>IN_BEARBEITUNG_SB-&gt;FEHLENDE_DOKUMENTE</title>
<path fill="none" stroke="#000000" d="M876.8555,-449.3401C864.85,-447.4985 852.6021,-445.6644 841,-444 779.7739,-435.2169 762.9095,-441.3826 703,-426 598.0908,-399.0631 538.3858,-425.7777 476.0518,-337.2 452.6293,-303.9162 457.796,-254.4921 464.3775,-223.7038"/>
<polygon fill="#000000" stroke="#000000" points="467.86,-224.1811 466.7199,-213.6478 461.0425,-222.593 467.86,-224.1811"/>
<text text-anchor="middle" x="560.9741" y="-324.6" font-family="Times,serif" font-size="14.00" fill="#000000">FEHLENDE_DOKUMENTE</text>
</g>
<!-- IN_REVIEW -->
<g id="node14" class="node">
<title>IN_REVIEW</title>
<ellipse fill="none" stroke="#000000" cx="891" cy="-373.2" rx="63.6832" ry="18"/>
<text text-anchor="middle" x="891" y="-369" font-family="Times,serif" font-size="14.00" fill="#000000">IN_REVIEW</text>
</g>
<!-- IN_BEARBEITUNG_SB&#45;&gt;IN_REVIEW -->
<g id="edge16" class="edge">
<title>IN_BEARBEITUNG_SB-&gt;IN_REVIEW</title>
<path fill="none" stroke="#000000" d="M936.122,-444.2672C930.4908,-438.723 924.5965,-432.3796 919.8092,-426 913.8256,-418.0262 908.2983,-408.6566 903.7191,-400.0412"/>
<polygon fill="#000000" stroke="#000000" points="906.8124,-398.4027 899.1456,-391.0903 900.5789,-401.5878 906.8124,-398.4027"/>
<text text-anchor="middle" x="958.0954" y="-413.4" font-family="Times,serif" font-size="14.00" fill="#000000">IN_REVIEW</text>
</g>
<!-- IN_FREIGABE -->
<g id="node15" class="node">
<title>IN_FREIGABE</title>
<ellipse fill="none" stroke="#000000" cx="1046" cy="-373.2" rx="73.0132" ry="18"/>
<text text-anchor="middle" x="1046" y="-369" font-family="Times,serif" font-size="14.00" fill="#000000">IN_FREIGABE</text>
</g>
<!-- IN_BEARBEITUNG_SB&#45;&gt;IN_FREIGABE -->
<g id="edge15" class="edge">
<title>IN_BEARBEITUNG_SB-&gt;IN_FREIGABE</title>
<path fill="none" stroke="#000000" d="M976.6377,-443.9941C982.9487,-438.3373 989.8456,-432.0003 996,-426 1004.949,-417.2751 1014.454,-407.402 1022.7468,-398.5737"/>
<polygon fill="#000000" stroke="#000000" points="1025.4186,-400.8405 1029.6778,-391.1395 1020.2986,-396.067 1025.4186,-400.8405"/>
<text text-anchor="middle" x="1057.101" y="-413.4" font-family="Times,serif" font-size="14.00" fill="#000000">IN_FREIGABE</text>
</g>
<!-- IN_BEARBEITUNG_GS -->
<g id="node6" class="node">
<title>IN_BEARBEITUNG_GS</title>
<ellipse fill="none" stroke="#000000" cx="866" cy="-817.2" rx="111.177" ry="18"/>
<text text-anchor="middle" x="866" y="-813" font-family="Times,serif" font-size="14.00" fill="#000000">IN_BEARBEITUNG_GS</text>
</g>
<!-- KOMPLETT_EINGEREICHT -->
<g id="node7" class="node">
<title>KOMPLETT_EINGEREICHT</title>
<ellipse fill="none" stroke="#000000" cx="866" cy="-728.4" rx="131.3593" ry="18"/>
<text text-anchor="middle" x="866" y="-724.2" font-family="Times,serif" font-size="14.00" fill="#000000">KOMPLETT_EINGEREICHT</text>
</g>
<!-- IN_BEARBEITUNG_GS&#45;&gt;KOMPLETT_EINGEREICHT -->
<g id="edge4" class="edge">
<title>IN_BEARBEITUNG_GS-&gt;KOMPLETT_EINGEREICHT</title>
<path fill="none" stroke="#000000" d="M866,-798.8006C866,-786.6949 866,-770.6076 866,-756.8674"/>
<polygon fill="#000000" stroke="#000000" points="869.5001,-756.472 866,-746.472 862.5001,-756.4721 869.5001,-756.472"/>
<text text-anchor="middle" x="907.986" y="-768.6" font-family="Times,serif" font-size="14.00" fill="#000000">EINREICHEN</text>
</g>
<!-- BEREIT_FUER_BEARBEITUNG -->
<g id="node9" class="node">
<title>BEREIT_FUER_BEARBEITUNG</title>
<ellipse fill="none" stroke="#000000" cx="630" cy="-550.8" rx="147.0711" ry="18"/>
<text text-anchor="middle" x="630" y="-546.6" font-family="Times,serif" font-size="14.00" fill="#000000">BEREIT_FUER_BEARBEITUNG</text>
</g>
<!-- KOMPLETT_EINGEREICHT&#45;&gt;BEREIT_FUER_BEARBEITUNG -->
<g id="edge10" class="edge">
<title>KOMPLETT_EINGEREICHT-&gt;BEREIT_FUER_BEARBEITUNG</title>
<path fill="none" stroke="#000000" d="M842.0723,-710.3934C799.2909,-678.1986 709.6946,-610.7736 661.7974,-574.7289"/>
<polygon fill="#000000" stroke="#000000" points="663.735,-571.8066 653.6401,-568.5902 659.5258,-577.3998 663.735,-571.8066"/>
<text text-anchor="middle" x="870.7623" y="-635.4" font-family="Times,serif" font-size="14.00" fill="#000000">BEREIT_FUER_BEARBEITUNG</text>
</g>
<!-- FEHLERHAFT -->
<g id="node13" class="node">
<title>FEHLERHAFT</title>
<ellipse fill="none" stroke="#000000" cx="1200" cy="-639.6" rx="72.9508" ry="18"/>
<text text-anchor="middle" x="1200" y="-635.4" font-family="Times,serif" font-size="14.00" fill="#000000">FEHLERHAFT</text>
</g>
<!-- KOMPLETT_EINGEREICHT&#45;&gt;FEHLERHAFT -->
<g id="edge11" class="edge">
<title>KOMPLETT_EINGEREICHT-&gt;FEHLERHAFT</title>
<path fill="none" stroke="#000000" d="M926.4849,-712.319C987.2082,-696.1746 1080.1779,-671.4569 1140.5365,-655.4095"/>
<polygon fill="#000000" stroke="#000000" points="1141.5377,-658.765 1150.3026,-652.813 1139.739,-652 1141.5377,-658.765"/>
<text text-anchor="middle" x="1157.4783" y="-679.8" font-family="Times,serif" font-size="14.00" fill="#000000">FEHLERHAFT_EINGEREICHT</text>
</g>
<!-- FEHLENDE_DOKUMENTE_NACHFRIST -->
<g id="node8" class="node">
<title>FEHLENDE_DOKUMENTE_NACHFRIST</title>
<ellipse fill="none" stroke="#000000" cx="232" cy="-106.8" rx="185.2159" ry="18"/>
<text text-anchor="middle" x="232" y="-102.6" font-family="Times,serif" font-size="14.00" fill="#000000">FEHLENDE_DOKUMENTE_NACHFRIST</text>
</g>
<!-- FEHLENDE_DOKUMENTE_NACHFRIST&#45;&gt;BEREIT_FUER_BEARBEITUNG -->
<g id="edge5" class="edge">
<title>FEHLENDE_DOKUMENTE_NACHFRIST-&gt;BEREIT_FUER_BEARBEITUNG</title>
<path fill="none" stroke="#000000" d="M147.2579,-122.8537C80.9839,-137.9118 0,-162.9849 0,-195.6 0,-462 0,-462 0,-462 0,-510.3328 294.4991,-534.0847 480.7935,-544.2746"/>
<polygon fill="#000000" stroke="#000000" points="480.7898,-547.7794 490.9639,-544.8233 481.167,-540.7895 480.7898,-547.7794"/>
<text text-anchor="middle" x="98.7623" y="-324.6" font-family="Times,serif" font-size="14.00" fill="#000000">BEREIT_FUER_BEARBEITUNG</text>
</g>
<!-- ZURUECKGEZOGEN -->
<g id="node10" class="node">
<title>ZURUECKGEZOGEN</title>
<ellipse fill="none" stroke="#000000" cx="500" cy="-18" rx="102.4275" ry="18"/>
<text text-anchor="middle" x="500" y="-13.8" font-family="Times,serif" font-size="14.00" fill="#000000">ZURUECKGEZOGEN</text>
</g>
<!-- FEHLENDE_DOKUMENTE_NACHFRIST&#45;&gt;ZURUECKGEZOGEN -->
<g id="edge6" class="edge">
<title>FEHLENDE_DOKUMENTE_NACHFRIST-&gt;ZURUECKGEZOGEN</title>
<path fill="none" stroke="#000000" d="M268.4213,-89.1033C292.3064,-77.9776 324.4405,-63.906 353.8176,-54 376.2549,-46.4341 401.1187,-39.7147 423.8817,-34.1902"/>
<polygon fill="#000000" stroke="#000000" points="424.9189,-37.5411 433.8345,-31.8172 423.2955,-30.7319 424.9189,-37.5411"/>
<text text-anchor="middle" x="420.0912" y="-58.2" font-family="Times,serif" font-size="14.00" fill="#000000">ZURUECKGEZOGEN</text>
</g>
<!-- BEREIT_FUER_BEARBEITUNG&#45;&gt;IN_BEARBEITUNG_SB -->
<g id="edge25" class="edge">
<title>BEREIT_FUER_BEARBEITUNG-&gt;IN_BEARBEITUNG_SB</title>
<path fill="none" stroke="#000000" d="M690.5541,-534.3055C746.951,-518.9434 830.8638,-496.0862 889.1906,-480.1984"/>
<polygon fill="#000000" stroke="#000000" points="890.3176,-483.519 899.0462,-477.5138 888.4779,-476.7651 890.3176,-483.519"/>
<text text-anchor="middle" x="883.2609" y="-502.2" font-family="Times,serif" font-size="14.00" fill="#000000">IN_BEARBEITUNG</text>
</g>
<!-- ABKLAERUNG_MIT_GS&#45;&gt;BEREIT_FUER_BEARBEITUNG -->
<g id="edge7" class="edge">
<title>ABKLAERUNG_MIT_GS-&gt;BEREIT_FUER_BEARBEITUNG</title>
<path fill="none" stroke="#000000" d="M555.3907,-293.9699C513.1423,-299.6712 469.7996,-308.2209 453,-320.4 424.0863,-341.3614 437.5519,-363.5089 415,-391.2 407.125,-400.8696 398.7552,-397.9021 393.4754,-409.2 361.9478,-476.6638 456.1201,-514.4284 534.8398,-533.6737"/>
<polygon fill="#000000" stroke="#000000" points="534.307,-537.1443 544.8444,-536.0423 535.9198,-530.3325 534.307,-537.1443"/>
<text text-anchor="middle" x="492.7623" y="-413.4" font-family="Times,serif" font-size="14.00" fill="#000000">BEREIT_FUER_BEARBEITUNG</text>
</g>
<!-- ABKLAERUNG_MIT_GS&#45;&gt;ZURUECKGEZOGEN -->
<g id="edge9" class="edge">
<title>ABKLAERUNG_MIT_GS-&gt;ZURUECKGEZOGEN</title>
<path fill="none" stroke="#000000" d="M666.6772,-266.4075C669.6684,-260.8561 672.4708,-254.5738 674,-248.4 675.7952,-241.1524 675.0404,-238.9938 674,-231.6 664.7991,-166.2134 674.5509,-140.1185 633,-88.8 614.1619,-65.5335 585.5862,-48.9199 559.7443,-37.6607"/>
<polygon fill="#000000" stroke="#000000" points="560.9472,-34.3703 550.3704,-33.7525 558.2534,-40.8312 560.9472,-34.3703"/>
<text text-anchor="middle" x="733.0912" y="-147" font-family="Times,serif" font-size="14.00" fill="#000000">ZURUECKGEZOGEN</text>
</g>
<!-- ABKLAERUNG_MIT_GS&#45;&gt;FEHLENDE_DOKUMENTE -->
<g id="edge8" class="edge">
<title>ABKLAERUNG_MIT_GS-&gt;FEHLENDE_DOKUMENTE</title>
<path fill="none" stroke="#000000" d="M576.5603,-270.8956C547.1591,-264.711 517.9811,-256.8728 506.0518,-248.4 496.9144,-241.9101 489.6263,-232.1241 484.175,-222.7332"/>
<polygon fill="#000000" stroke="#000000" points="487.1139,-220.8045 479.3355,-213.6109 480.9302,-224.0851 487.1139,-220.8045"/>
<text text-anchor="middle" x="590.9741" y="-235.8" font-family="Times,serif" font-size="14.00" fill="#000000">FEHLENDE_DOKUMENTE</text>
</g>
<!-- FEHLENDE_DOKUMENTE&#45;&gt;FEHLENDE_DOKUMENTE_NACHFRIST -->
<g id="edge19" class="edge">
<title>FEHLENDE_DOKUMENTE-&gt;FEHLENDE_DOKUMENTE_NACHFRIST</title>
<path fill="none" stroke="#000000" d="M365.3432,-185.8193C306.0901,-179.2911 242.4631,-170.0132 233.2804,-159.6 227.3958,-152.9268 225.7882,-143.7269 226.0606,-134.8744"/>
<polygon fill="#000000" stroke="#000000" points="229.5537,-135.1209 227.1006,-124.814 222.5908,-134.4011 229.5537,-135.1209"/>
<text text-anchor="middle" x="360.3598" y="-147" font-family="Times,serif" font-size="14.00" fill="#000000">FEHLENDE_DOKUMENTE_NACHFRIST</text>
</g>
<!-- FEHLENDE_DOKUMENTE&#45;&gt;BEREIT_FUER_BEARBEITUNG -->
<g id="edge20" class="edge">
<title>FEHLENDE_DOKUMENTE-&gt;BEREIT_FUER_BEARBEITUNG</title>
<path fill="none" stroke="#000000" d="M384.3144,-208.6911C309.1765,-222.4587 213,-247.3229 213,-284.4 213,-462 213,-462 213,-462 213,-492.8004 389.2795,-521.0879 512.6121,-537.1099"/>
<polygon fill="#000000" stroke="#000000" points="512.518,-540.6266 522.883,-538.4318 513.4116,-533.6838 512.518,-540.6266"/>
<text text-anchor="middle" x="311.7623" y="-369" font-family="Times,serif" font-size="14.00" fill="#000000">BEREIT_FUER_BEARBEITUNG</text>
</g>
<!-- FEHLENDE_DOKUMENTE&#45;&gt;ZURUECKGEZOGEN -->
<g id="edge21" class="edge">
<title>FEHLENDE_DOKUMENTE-&gt;ZURUECKGEZOGEN</title>
<path fill="none" stroke="#000000" d="M480.1087,-177.5941C482.3535,-171.9373 484.5652,-165.6003 486,-159.6 495.2209,-121.0395 498.3827,-75.173 499.4584,-46.3176"/>
<polygon fill="#000000" stroke="#000000" points="502.9622,-46.2467 499.7768,-36.1421 495.9657,-46.0277 502.9622,-46.2467"/>
<text text-anchor="middle" x="563.0912" y="-102.6" font-family="Times,serif" font-size="14.00" fill="#000000">ZURUECKGEZOGEN</text>
</g>
<!-- FEHLERHAFT&#45;&gt;NEGATIVER_ENTSCHEID -->
<g id="edge14" class="edge">
<title>FEHLERHAFT-&gt;NEGATIVER_ENTSCHEID</title>
<path fill="none" stroke="#000000" d="M1269.9352,-634.654C1365.7247,-625.9225 1526,-603.4468 1526,-550.8 1526,-550.8 1526,-550.8 1526,-195.6 1526,-121.7982 1089.9708,-129.7681 1040,-124.8 1028.5036,-123.657 1016.4747,-122.2882 1004.5429,-120.8226"/>
<polygon fill="#000000" stroke="#000000" points="1004.9143,-117.3419 994.5568,-119.5716 1004.0441,-124.2876 1004.9143,-117.3419"/>
<text text-anchor="middle" x="1608.4194" y="-369" font-family="Times,serif" font-size="14.00" fill="#000000">NEGATIVER_ENTSCHEID</text>
</g>
<!-- FEHLERHAFT&#45;&gt;BEREIT_FUER_BEARBEITUNG -->
<g id="edge12" class="edge">
<title>FEHLERHAFT-&gt;BEREIT_FUER_BEARBEITUNG</title>
<path fill="none" stroke="#000000" d="M1138.697,-629.906C1071.3491,-619.2703 959.9825,-601.7247 864,-586.8 820.7568,-580.0759 773.0074,-572.7179 731.98,-566.4163"/>
<polygon fill="#000000" stroke="#000000" points="732.3903,-562.9384 721.9749,-564.88 731.3279,-569.8573 732.3903,-562.9384"/>
<text text-anchor="middle" x="1064.7623" y="-591" font-family="Times,serif" font-size="14.00" fill="#000000">BEREIT_FUER_BEARBEITUNG</text>
</g>
<!-- FEHLERHAFT&#45;&gt;IN_REVIEW -->
<g id="edge13" class="edge">
<title>FEHLERHAFT-&gt;IN_REVIEW</title>
<path fill="none" stroke="#000000" d="M1198.5931,-621.5862C1194.0896,-577.3089 1175.9044,-462.8682 1106,-409.2 1080.77,-389.83 995.2716,-397.0172 964,-391.2 958.6262,-390.2003 953.0571,-389.0461 947.5006,-387.8146"/>
<polygon fill="#000000" stroke="#000000" points="948.0868,-384.3582 937.5571,-385.5312 946.52,-391.1806 948.0868,-384.3582"/>
<text text-anchor="middle" x="1214.0954" y="-502.2" font-family="Times,serif" font-size="14.00" fill="#000000">IN_REVIEW</text>
</g>
<!-- IN_REVIEW&#45;&gt;NEGATIVER_ENTSCHEID -->
<g id="edge28" class="edge">
<title>IN_REVIEW-&gt;NEGATIVER_ENTSCHEID</title>
<path fill="none" stroke="#000000" d="M882.4493,-355.3542C876.2237,-341.3245 868.3239,-321.0935 865,-302.4 854.2665,-242.0353 877.8864,-171.8085 893.5477,-134.0967"/>
<polygon fill="#000000" stroke="#000000" points="896.8111,-135.3667 897.5254,-124.7959 890.375,-132.6141 896.8111,-135.3667"/>
<text text-anchor="middle" x="948.4194" y="-235.8" font-family="Times,serif" font-size="14.00" fill="#000000">NEGATIVER_ENTSCHEID</text>
</g>
<!-- IN_REVIEW&#45;&gt;BEREIT_FUER_BEARBEITUNG -->
<g id="edge26" class="edge">
<title>IN_REVIEW-&gt;BEREIT_FUER_BEARBEITUNG</title>
<path fill="none" stroke="#000000" d="M843.0157,-385.1518C771.6342,-403.1441 645.1007,-435.9451 638.4754,-444 620.647,-465.6755 620.8909,-498.9028 624.0966,-522.5339"/>
<polygon fill="#000000" stroke="#000000" points="620.6786,-523.3237 625.7236,-532.6402 627.5896,-522.211 620.6786,-523.3237"/>
<text text-anchor="middle" x="737.7623" y="-457.8" font-family="Times,serif" font-size="14.00" fill="#000000">BEREIT_FUER_BEARBEITUNG</text>
</g>
<!-- IN_REVIEW&#45;&gt;ABKLAERUNG_MIT_GS -->
<g id="edge27" class="edge">
<title>IN_REVIEW-&gt;ABKLAERUNG_MIT_GS</title>
<path fill="none" stroke="#000000" d="M842.865,-361.4368C833.0164,-359.2148 822.698,-357.0199 813,-355.2 758.2818,-344.9319 735.8701,-367.2998 689.035,-337.2 679.4403,-331.0337 672.0049,-321.0941 666.5657,-311.4932"/>
<polygon fill="#000000" stroke="#000000" points="669.6413,-309.8204 661.9573,-302.5261 663.4154,-313.0201 669.6413,-309.8204"/>
<text text-anchor="middle" x="766.9825" y="-324.6" font-family="Times,serif" font-size="14.00" fill="#000000">ABKLAERUNG_MIT_GS</text>
</g>
<!-- IN_FREIGABE&#45;&gt;ZURUECKGEWIESEN -->
<g id="edge23" class="edge">
<title>IN_FREIGABE-&gt;ZURUECKGEWIESEN</title>
<path fill="none" stroke="#000000" d="M1104.1222,-362.082C1127.7299,-356.3685 1154.8415,-348.2368 1178,-337.2 1189.5486,-331.6962 1189.6146,-325.4399 1201.373,-320.4 1211.449,-316.0812 1260.5827,-306.8438 1306.4398,-298.8078"/>
<polygon fill="#000000" stroke="#000000" points="1307.2139,-302.2257 1316.4645,-297.0607 1306.012,-295.3297 1307.2139,-302.2257"/>
<text text-anchor="middle" x="1269.8135" y="-324.6" font-family="Times,serif" font-size="14.00" fill="#000000">ZURUECKGEWIESEN</text>
</g>
<!-- WARTEN_AUF_UNTERSCHRIFTENBLATT -->
<g id="node17" class="node">
<title>WARTEN_AUF_UNTERSCHRIFTENBLATT</title>
<ellipse fill="none" stroke="#000000" cx="1071" cy="-284.4" rx="197.3329" ry="18"/>
<text text-anchor="middle" x="1071" y="-280.2" font-family="Times,serif" font-size="14.00" fill="#000000">WARTEN_AUF_UNTERSCHRIFTENBLATT</text>
</g>
<!-- IN_FREIGABE&#45;&gt;WARTEN_AUF_UNTERSCHRIFTENBLATT -->
<g id="edge24" class="edge">
<title>IN_FREIGABE-&gt;WARTEN_AUF_UNTERSCHRIFTENBLATT</title>
<path fill="none" stroke="#000000" d="M992.6633,-360.8583C955.0614,-351.9025 910.9109,-340.7601 908.1612,-337.2 903.5971,-331.2907 903.4859,-326.2218 908.1612,-320.4 914.318,-312.7334 928.6708,-306.6007 946.437,-301.7278"/>
<polygon fill="#000000" stroke="#000000" points="947.7923,-304.9952 956.6279,-299.1485 946.0747,-298.2092 947.7923,-304.9952"/>
<text text-anchor="middle" x="1043.9194" y="-324.6" font-family="Times,serif" font-size="14.00" fill="#000000">WARTEN_AUF_UNTERSCHRIFTENBLATT</text>
</g>
<!-- WARTEN_AUF_UNTERSCHRIFTENBLATT&#45;&gt;VERFUEGT -->
<g id="edge29" class="edge">
<title>WARTEN_AUF_UNTERSCHRIFTENBLATT-&gt;VERFUEGT</title>
<path fill="none" stroke="#000000" d="M1071,-266.0006C1071,-253.8949 1071,-237.8076 1071,-224.0674"/>
<polygon fill="#000000" stroke="#000000" points="1074.5001,-223.672 1071,-213.672 1067.5001,-223.6721 1074.5001,-223.672"/>
<text text-anchor="middle" x="1107.5484" y="-235.8" font-family="Times,serif" font-size="14.00" fill="#000000">VERFUEGT</text>
</g>
</g>
</svg>