<?xml version="1.0" encoding="utf-8"?>
<!-- Generator: Adobe Illustrator 23.0.3, SVG Export Plug-In . SVG Version: 6.00 Build 0)  -->
<svg version="1.1" id="Kanton_Bern" xmlns="http://www.w3.org/2000/svg" xmlns:xlink="http://www.w3.org/1999/xlink" x="0px"
	 y="0px" viewBox="0 0 150.236221 87.307083" style="enable-background:new 0 0 150.236221 87.307083;" xml:space="preserve">
<rect x="17.007874" y="65.763779" width="42.519684" height="4.535433"/>
<g>
	<path d="M59.534729,27.383362h1.581055v2.328613l1.99707-2.328613h1.963379l-2.243652,2.388184l2.523926,3.680176h-1.963379
		l-1.631836-2.549805l-0.645508,0.680176v1.869629h-1.581055V27.383362z"/>
	<path d="M65.83551,30.400452c0.025879-0.577637,0.297852-0.95166,0.688477-1.181152
		c0.391113-0.221191,0.900879-0.306152,1.402344-0.306152c1.04541,0,2.057129,0.229492,2.057129,1.479004v1.929199
		c0,0.374023,0,0.781738,0.169922,1.130371h-1.453613c-0.050781-0.13623-0.067871-0.271973-0.084961-0.416504
		c-0.374023,0.391113-0.92627,0.543945-1.453125,0.543945c-0.841797,0-1.504395-0.424805-1.504395-1.334473
		c0-1.436035,1.563965-1.325684,2.566406-1.529785c0.246582-0.050781,0.382812-0.135742,0.382812-0.407715
		c0-0.331543-0.399414-0.458984-0.697266-0.458984c-0.399414,0-0.654297,0.178223-0.722168,0.552246H65.83551z M67.705627,32.686584
		c0.688477,0,0.917969-0.390625,0.883789-1.300293c-0.204102,0.127441-0.578125,0.15332-0.892578,0.238281
		c-0.322754,0.076172-0.594727,0.212402-0.594727,0.560547C67.102112,32.542542,67.382385,32.686584,67.705627,32.686584z"/>
	<path d="M71.08844,29.040588h1.402344v0.603516h0.01709c0.263672-0.450684,0.858398-0.730957,1.385254-0.730957
		c1.470215,0,1.589355,1.070801,1.589355,1.708496v2.830078h-1.444824V31.31842c0-0.603516,0.067871-1.215332-0.722168-1.215332
		c-0.543945,0-0.782227,0.458984-0.782227,0.943359v2.405273H71.08844V29.040588z"/>
	<path d="M79.192932,29.975647h-0.89209v2.005859c0,0.348145,0.203613,0.424805,0.518066,0.424805
		c0.119141,0,0.246582-0.01709,0.374023-0.01709v1.0625c-0.263184,0.008301-0.526855,0.04248-0.790039,0.04248
		c-1.232422,0-1.546875-0.356934-1.546875-1.555176v-1.963379h-0.730957v-0.935059h0.730957v-1.334473h1.444824v1.334473h0.89209
		V29.975647z"/>
	<path d="M82.024475,28.913147c1.368164,0,2.328613,1.01123,2.328613,2.337402c0,1.325684-0.960449,2.328613-2.328613,2.328613
		s-2.320312-1.00293-2.320312-2.328613C79.704163,29.924377,80.656311,28.913147,82.024475,28.913147z M82.024475,32.474182
		c0.671387,0,0.883789-0.662598,0.883789-1.223633s-0.212402-1.232422-0.883789-1.232422s-0.875488,0.671387-0.875488,1.232422
		S81.353088,32.474182,82.024475,32.474182z"/>
	<path d="M85.24176,29.040588h1.402344v0.603516h0.01709c0.263672-0.450684,0.858398-0.730957,1.385254-0.730957
		c1.470215,0,1.589355,1.070801,1.589355,1.708496v2.830078h-1.444824V31.31842c0-0.603516,0.067871-1.215332-0.722168-1.215332
		c-0.543945,0-0.782227,0.458984-0.782227,0.943359v2.405273H85.24176V29.040588z"/>
	<path d="M93.333557,27.383362h2.838867c1.04541-0.01709,2.192871,0.254883,2.192871,1.521484
		c0,0.543945-0.323242,0.98584-0.799316,1.223633c0.645996,0.187012,1.04541,0.748047,1.04541,1.436523
		c0,1.444824-1.0625,1.886719-2.362793,1.886719h-2.915039V27.383362z M94.914612,29.771545h1.223633
		c0.271973,0,0.645996-0.144531,0.645996-0.578125c0-0.441895-0.314453-0.586426-0.645996-0.586426h-1.223633V29.771545z
		 M94.914612,32.18512h1.266113c0.501465,0,0.850098-0.178223,0.850098-0.679688c0-0.535645-0.374023-0.713867-0.850098-0.713867
		h-1.266113V32.18512z"/>
	<path d="M100.791077,31.598694c0.025391,0.603516,0.374023,1.00293,0.98584,1.00293
		c0.348633,0,0.688477-0.161133,0.824707-0.484375h1.351074c-0.263184,1.02002-1.206543,1.461914-2.192871,1.461914
		c-1.436035,0-2.413574-0.866699-2.413574-2.345703c0-1.351562,1.07959-2.320312,2.379883-2.320312
		c1.580566,0,2.371094,1.189941,2.303223,2.685547H100.791077z M102.584534,30.791565
		c-0.025391-0.493164-0.374023-0.900879-0.858398-0.900879c-0.510254,0-0.850098,0.365234-0.935059,0.900879H102.584534z"/>
	<path d="M104.914612,29.040588h1.402344v0.773438h0.016602c0.212891-0.561035,0.705566-0.858398,1.326172-0.858398
		c0.110352,0,0.229492,0.008301,0.339844,0.03418v1.317383c-0.187012-0.05127-0.356934-0.084961-0.552246-0.084961
		c-0.713867,0-1.087891,0.492676-1.087891,1.04541v2.184082h-1.444824V29.040588z"/>
	<path d="M108.625549,29.040588h1.402344v0.603516h0.01709c0.263672-0.450684,0.858398-0.730957,1.385254-0.730957
		c1.470215,0,1.589355,1.070801,1.589355,1.708496v2.830078h-1.444824V31.31842c0-0.603516,0.067871-1.215332-0.722168-1.215332
		c-0.543945,0-0.782227,0.458984-0.782227,0.943359v2.405273h-1.444824V29.040588z"/>
	<path d="M63.563538,40.322327c-0.084961-0.612305-0.561035-0.935059-1.224121-0.935059
		c-1.02002,0-1.410645,0.900879-1.410645,1.801758s0.390625,1.801758,1.410645,1.801758
		c0.739258,0,1.164551-0.424805,1.224121-1.12207h1.580566c-0.084961,1.563965-1.232422,2.481934-2.770508,2.481934
		c-1.835938,0-3.025879-1.402344-3.025879-3.161621s1.189941-3.161621,3.025879-3.161621
		c1.308594,0,2.728027,0.833008,2.770508,2.294922H63.563538z"/>
	<path d="M65.998108,41.171936c0.025879-0.577637,0.297852-0.95166,0.688477-1.181152
		c0.391113-0.221191,0.900879-0.306152,1.402344-0.306152c1.04541,0,2.057129,0.229492,2.057129,1.479004v1.929199
		c0,0.374023,0,0.781738,0.169922,1.130371h-1.453613c-0.050781-0.13623-0.067871-0.271973-0.084961-0.416504
		c-0.374023,0.391113-0.92627,0.543945-1.453125,0.543945c-0.841797,0-1.504395-0.424805-1.504395-1.334473
		c0-1.436035,1.563965-1.325684,2.566406-1.529785c0.246582-0.050781,0.382812-0.135742,0.382812-0.407715
		c0-0.331543-0.399414-0.458984-0.697266-0.458984c-0.399414,0-0.654297,0.178223-0.722168,0.552246H65.998108z
		 M67.868225,43.458069c0.688477,0,0.917969-0.390625,0.883789-1.300293c-0.204102,0.127441-0.578125,0.15332-0.892578,0.238281
		c-0.322754,0.076172-0.594727,0.212402-0.594727,0.560547C67.264709,43.314026,67.544983,43.458069,67.868225,43.458069z"/>
	<path d="M71.251038,39.812073h1.402344v0.603516h0.01709c0.263672-0.450684,0.858398-0.730957,1.385254-0.730957
		c1.470703,0,1.589355,1.070801,1.589355,1.708496v2.830078h-1.444824v-2.133301c0-0.603516,0.067871-1.215332-0.722168-1.215332
		c-0.543945,0-0.782227,0.458984-0.782227,0.943359v2.405273h-1.444824V39.812073z"/>
	<path d="M79.355042,40.747131h-0.89209v2.005859c0,0.348145,0.203613,0.424805,0.518066,0.424805
		c0.119141,0,0.246582-0.01709,0.374023-0.01709v1.0625c-0.263184,0.008301-0.526855,0.04248-0.790039,0.04248
		c-1.232422,0-1.546875-0.356934-1.546875-1.555176v-1.963379H76.28717v-0.935059h0.730957V38.4776h1.444824v1.334473h0.89209
		V40.747131z"/>
	<path d="M82.186584,39.684631c1.368164,0,2.328613,1.01123,2.328613,2.337402c0,1.325684-0.960449,2.328613-2.328613,2.328613
		s-2.320312-1.00293-2.320312-2.328613C79.866272,40.695862,80.81842,39.684631,82.186584,39.684631z M82.186584,43.245667
		c0.671387,0,0.883789-0.662598,0.883789-1.223633s-0.212402-1.232422-0.883789-1.232422s-0.875488,0.671387-0.875488,1.232422
		S81.515198,43.245667,82.186584,43.245667z"/>
	<path d="M85.40387,39.812073h1.402344v0.603516h0.01709c0.263672-0.450684,0.858398-0.730957,1.385254-0.730957
		c1.470215,0,1.589355,1.070801,1.589355,1.708496v2.830078h-1.444824v-2.133301c0-0.603516,0.067871-1.215332-0.722168-1.215332
		c-0.543945,0-0.782227,0.458984-0.782227,0.943359v2.405273H85.40387V39.812073z"/>
	<path d="M97.804749,44.223206h-1.376953V43.71344h-0.01709c-0.280273,0.416504-0.705078,0.637207-1.215332,0.637207
		c-1.385254,0-1.97168-1.189941-1.97168-2.430664c0-1.147461,0.611816-2.235352,1.861328-2.235352
		c0.543945,0,0.960449,0.204102,1.257812,0.603516h0.01709v-2.133301h1.444824V44.223206z M94.668518,41.970764
		c0,0.603516,0.221191,1.274902,0.883789,1.274902c0.705566,0,0.858398-0.671387,0.858398-1.232422
		c0-0.637207-0.229492-1.223633-0.858398-1.223633C94.889709,40.789612,94.668518,41.410217,94.668518,41.970764z"/>
	<path d="M100.147034,42.370178c0.025391,0.603516,0.374023,1.00293,0.98584,1.00293
		c0.348633,0,0.688477-0.161133,0.824707-0.484375h1.351074c-0.263184,1.02002-1.207031,1.461914-2.192871,1.461914
		c-1.436035,0-2.413574-0.866699-2.413574-2.345703c0-1.351562,1.07959-2.320312,2.379883-2.320312
		c1.580566,0,2.371094,1.189941,2.303223,2.685547H100.147034z M101.940491,41.563049
		c-0.025391-0.493164-0.374023-0.900879-0.858398-0.900879c-0.510254,0-0.850098,0.365234-0.935059,0.900879H101.940491z"/>
	<path d="M106.844788,38.154846h2.838867c1.04541-0.01709,2.192383,0.254883,2.192383,1.521484
		c0,0.543945-0.322754,0.98584-0.798828,1.223633c0.645996,0.187012,1.04541,0.748047,1.04541,1.436523
		c0,1.444824-1.062012,1.886719-2.362793,1.886719h-2.915039V38.154846z M108.425842,40.54303h1.223633
		c0.271973,0,0.645996-0.144531,0.645996-0.578125c0-0.441895-0.314453-0.586426-0.645996-0.586426h-1.223633V40.54303z
		 M108.425842,42.956604h1.266113c0.501465,0,0.850098-0.178223,0.850098-0.679688c0-0.535645-0.374023-0.713867-0.850098-0.713867
		h-1.266113V42.956604z"/>
	<path d="M114.302307,42.370178c0.025391,0.603516,0.374023,1.00293,0.98584,1.00293
		c0.348633,0,0.688477-0.161133,0.824707-0.484375h1.351074c-0.263184,1.02002-1.207031,1.461914-2.192871,1.461914
		c-1.436035,0-2.413574-0.866699-2.413574-2.345703c0-1.351562,1.07959-2.320312,2.379883-2.320312
		c1.580566,0,2.371094,1.189941,2.303223,2.685547H114.302307z M116.095764,41.563049
		c-0.025391-0.493164-0.374023-0.900879-0.858398-0.900879c-0.510254,0-0.850098,0.365234-0.935059,0.900879H116.095764z"/>
	<path d="M118.425842,39.812073h1.402344v0.773438h0.016602c0.212891-0.561035,0.705566-0.858398,1.326172-0.858398
		c0.110352,0,0.229492,0.008301,0.339844,0.03418v1.317383c-0.187012-0.05127-0.356934-0.084961-0.552246-0.084961
		c-0.713867,0-1.087891,0.492676-1.087891,1.04541v2.184082h-1.444824V39.812073z"/>
	<path d="M122.13678,39.812073h1.402344v0.603516h0.01709c0.263672-0.450684,0.858398-0.730957,1.385254-0.730957
		c1.470703,0,1.589355,1.070801,1.589355,1.708496v2.830078h-1.444824v-2.133301c0-0.603516,0.067871-1.215332-0.722168-1.215332
		c-0.543945,0-0.782227,0.458984-0.782227,0.943359v2.405273h-1.444824V39.812073z"/>
	<path d="M128.845764,42.370178c0.025391,0.603516,0.374023,1.00293,0.98584,1.00293
		c0.348633,0,0.688477-0.161133,0.824707-0.484375h1.351074c-0.263184,1.02002-1.206543,1.461914-2.192871,1.461914
		c-1.436035,0-2.413574-0.866699-2.413574-2.345703c0-1.351562,1.07959-2.320312,2.379883-2.320312
		c1.580566,0,2.371094,1.189941,2.303223,2.685547H128.845764z M130.639221,41.563049
		c-0.025391-0.493164-0.374023-0.900879-0.858398-0.900879c-0.510254,0-0.850098,0.365234-0.935059,0.900879H130.639221z"/>
</g>
<path d="M21.559265,33.220093c0.266724,0.190674,1.074036,0.746216,1.406921,0.976318
	c0.291016,0.201172,0.265076,0.609375,0.152771,0.813782c-0.107178,0.195129-0.433228,0.305603-0.698486,0.121521
	c-0.265198-0.184021-0.861206-0.607971-0.861206-0.607971v0.715942l3.001343,2.13385
	c0.452332,0.321411,0.696655,0.94165,0.696655,1.5177v2.599731l0.038696,0.95105c0,0-0.598572-0.930786-1.57782-1.167114
	l-0.051758,2.271973l1.997681,0.323059c0.192627,0.031189,0.386719-0.046997,0.503967-0.203003l1.987854-2.642944l0.582153,0.091736
	c0,0-0.075012,0.124756-0.250488,0.395691c-0.175415,0.270935-0.286011,0.781128,0.005493,1.251831l1.643677,2.65387v0.100769
	c0,0-0.625977-0.975891-1.605225-1.21228l-0.056641,2.279663l1.945679,0.314697
	c0.214355,0.034668,0.424622-0.081909,0.50885-0.282043l0.736755-1.751099c-0.574158-1.05896-1.021729-1.676941-0.652649-2.769775
	l-1.270935-0.822998l1.960754,0.307922c0,0,0,0-0.104309,0.230774c-0.222717,0.492676-0.594666,1.107178,0.084595,2.277283
	c0.699463,1.204651,1.306763,2.178894,1.406677,2.358032c0.099854,0.179138,0.3479,0.669495,0.929016,0.761902
	c-0.640259-0.008057-1.431946-0.230286-2.16925,0.772949l1.917236,1.243958l1.407654-1.766663
	c0.154114-0.19342,0.225647-0.439819,0.199097-0.685669l-0.506714-4.692993c0,0,0.316528,0.038635,0.825745,0.113464
	l-0.138733-0.939453c-0.070923-0.480286-0.340454-0.908569-0.742676-1.180359l-6.249329-4.222534c0,0,0-0.122375,0-0.265259
	c0-0.247375-0.141418-0.393066-0.256409-0.454651l-1.698853-0.910522c-0.104553-0.05603-0.248962-0.052246-0.281128-0.05072
	c0.101562-0.054077,0.193115-0.128113,0.249939-0.237427c0.151245-0.290894,0.034607-0.651184-0.260437-0.804688
	s-0.656799-0.042175-0.807983,0.248718c-0.052795,0.101624-0.062378,0.210266-0.05365,0.317017
	c-0.010925-0.02124-0.064026-0.120117-0.178589-0.186768l-1.060547-0.56842c-0.266479-0.135071-0.372131,0.093201-0.388733,0.125488
	c-0.016602,0.032349-0.042664,0.126709-0.042664,0.126709l-2.294128-1.295898c0,0.006165,0,0.024353,0,0.074707
	c0,0.118164,0.070129,0.180908,0.070129,0.370789V33.220093z M24.209106,33.557495c0.15863,0,0.28717,0.128601,0.28717,0.287231
	s-0.12854,0.28717-0.28717,0.28717s-0.287231-0.12854-0.287231-0.28717S24.050476,33.557495,24.209106,33.557495z"/>
<path d="M20.428345,33.350708c0.706848,0.498596,2.321594,1.628113,2.321594,1.628113l0.002441-0.252136l-1.871643-1.4245
	c-0.553284-0.421143-0.268005-1.152222,0.13324-1.293091c-0.553101-0.034607-0.871765,0.148682-0.981445,0.404419
	C19.908264,32.703369,20.007507,33.053833,20.428345,33.350708z"/>
<path d="M24.851196,39.032715c0-0.489685-0.074219-0.997864-0.56366-1.403381c0,0-2.175476,0.50354-2.493286,0.577087
	c-0.152954,0.0354-0.30249,0.128906-0.30249,0.128906c0.2901-0.840515,0.21759-1.455872,0.063354-1.702148
	c-0.214722-0.342834-0.214722-0.342834-0.214722-0.342834l-1.764771,1.43988l1.219482,1.782166
	c0.170105,0.248535,0.434998,0.416138,0.732483,0.463318l3.323608,0.527832V39.032715z"/>
<path d="M19.614014,37.255188c-0.253601-0.324768-0.711182-0.510376-0.711182-0.510376l0.478882,0.699951L19.614014,37.255188z"/>
<path d="M19.996094,36.943054c-0.253601-0.324768-0.711121-0.510376-0.711121-0.510376l0.478821,0.699951L19.996094,36.943054z"/>
<path d="M20.378235,36.63092c-0.253662-0.324768-0.711182-0.510376-0.711182-0.510376l0.478882,0.699951L20.378235,36.63092z"/>
<path d="M20.528015,36.508362l0.2323-0.189575c-0.253601-0.324768-0.711121-0.510376-0.711121-0.510376L20.528015,36.508362z"/>
<path d="M21.142456,36.006714c-0.253662-0.324829-0.711182-0.510437-0.711182-0.510437l0.478821,0.699951L21.142456,36.006714z"/>
<path d="M23.366638,41.534729l0.006592-0.294006c-0.48877-0.010925-0.87146,0.20459-0.87146,0.20459L23.366638,41.534729z"/>
<path d="M23.355591,42.028809l0.006592-0.294006c-0.488708-0.010925-0.87146,0.20459-0.87146,0.20459L23.355591,42.028809z"/>
<path d="M23.344543,42.522827l0.006592-0.294006c-0.488708-0.010925-0.87146,0.20459-0.87146,0.20459L23.344543,42.522827z"/>
<path d="M23.333496,43.016846l0.006592-0.294006c-0.488708-0.010925-0.87146,0.20459-0.87146,0.20459L23.333496,43.016846z"/>
<path d="M23.322449,43.510925l0.006592-0.294006c-0.488708-0.010925-0.87146,0.20459-0.87146,0.20459L23.322449,43.510925z"/>
<path d="M28.179993,44.565491l0.006531-0.294006c-0.488708-0.010925-0.871399,0.20459-0.871399,0.20459L28.179993,44.565491z"/>
<path d="M28.168945,45.059509l0.006592-0.294006c-0.48877-0.010925-0.87146,0.20459-0.87146,0.20459L28.168945,45.059509z"/>
<path d="M28.157898,45.553589l0.006592-0.294006c-0.488708-0.010925-0.87146,0.20459-0.87146,0.20459L28.157898,45.553589z"/>
<path d="M28.146851,46.047607l0.006592-0.294006c-0.488708-0.010925-0.87146,0.20459-0.87146,0.20459L28.146851,46.047607z"/>
<path d="M28.135803,46.541687l0.006592-0.294067c-0.488708-0.010864-0.87146,0.20459-0.87146,0.20459L28.135803,46.541687z"/>
<path d="M31.639648,48.258362c-0.266174,0.410034-0.284058,0.848877-0.284058,0.848877l0.530762-0.688721L31.639648,48.258362z"/>
<path d="M32.054138,48.527466c-0.266174,0.410034-0.284058,0.848877-0.284058,0.848877l0.530701-0.688721L32.054138,48.527466z"/>
<path d="M32.468628,48.79657c-0.266174,0.410034-0.284058,0.848877-0.284058,0.848877l0.530701-0.688721L32.468628,48.79657z"/>
<path d="M32.883118,49.065674c-0.266235,0.410034-0.284119,0.848877-0.284119,0.848877l0.530762-0.688721L32.883118,49.065674z"/>
<path d="M33.013489,50.183655l0.530701-0.688721l-0.246643-0.160156C33.031372,49.744751,33.013489,50.183655,33.013489,50.183655z"
	/>
<path d="M17.007874,44.070862c0,6.033203,4.883301,10.941406,10.885254,10.941406s10.884766-4.908203,10.884766-10.941406V28.969788
	h-21.77002V44.070862z M17.801819,44.070862V41.79718l15.672546,10.720337c-1.599915,1.072571-3.518433,1.700806-5.581238,1.700806
	C22.328674,54.218323,17.801819,49.666077,17.801819,44.070862z M37.983948,39.057129l-13.713684-9.293396h13.713684V39.057129z
	 M22.855103,29.763733l15.128845,10.252441v4.054688c0,3.218628-1.502747,6.086243-3.834412,7.946594l-16.347717-11.18219V29.763733
	H22.855103z"/>
<path d="M36.690125,18.992126c-0.325012,0.297485-0.570801,0.704712-0.570801,1.247192
	c0,0.226807,0.051025,0.371155,0.134521,0.479919c-0.740723,0.22821-1.248962,0.892639-1.248962,1.731018
	c0,0.747925,0.345947,1.542236,1.403564,1.860413c-0.217163,0.278503-0.704224,0.520447-1.258972,0.520447
	c-0.769714,0-1.427917-0.462646-1.72467-1.122559c0.495728-0.20343,0.846252-0.690063,0.846252-1.258301
	c0-0.750488-0.610352-1.36084-1.36084-1.36084s-1.36084,0.610352-1.36084,1.36084c0,0.569641,0.352356,1.056946,0.849976,1.25946
	c-0.280212,0.659363-0.876221,1.121399-1.645447,1.121399c-0.631165,0-1.032654-0.159546-1.379639-0.588623
	c1.031189-0.250366,1.441345-1.087524,1.441345-1.792236c0-0.916016-0.525269-1.495605-1.226074-1.743225
	c0.148438-0.255371,0.202637-0.43866,0.202637-0.75116c0-0.63855-0.201355-0.924255-0.708679-1.530701
	c0,0-0.324829-0.374695-0.430298-0.498535c-0.22467-0.263794-0.59021-0.635315-0.760315-0.918762
	c-0.170105,0.283447-0.535645,0.654968-0.760254,0.918762c-0.10553,0.12384-0.430359,0.498535-0.430359,0.498535
	c-0.507324,0.606445-0.708679,0.892151-0.708679,1.530701c0,0.3125,0.054199,0.495789,0.202637,0.75116
	c-0.700806,0.24762-1.226074,0.827209-1.226074,1.743225c0,0.704712,0.410156,1.54187,1.441345,1.792236
	c-0.346985,0.429077-0.748474,0.588623-1.379639,0.588623c-0.769226,0-1.365234-0.462036-1.645447-1.121399
	c0.49762-0.202515,0.849976-0.689819,0.849976-1.25946c0-0.750488-0.610352-1.36084-1.36084-1.36084
	s-1.36084,0.610352-1.36084,1.36084c0,0.568237,0.350525,1.054871,0.846252,1.258301
	c-0.296753,0.659912-0.954956,1.122559-1.72467,1.122559c-0.554749,0-1.041809-0.241943-1.258972-0.520447
	c1.057617-0.318176,1.403564-1.112488,1.403564-1.860413c0-0.838379-0.50824-1.502808-1.248962-1.731018
	c0.083496-0.108765,0.134521-0.253113,0.134521-0.479919c0-0.54248-0.245789-0.949707-0.570801-1.247192
	c-0.7146-0.654114-2.484619-1.984253-2.484619-1.984253c0.288574,1.538757,0.396851,2.683716,0.396851,3.602539v7.565918h10.885254
	h10.884766v-7.565918c0-0.918823,0.108276-2.063782,0.396912-3.602539C39.174805,17.007874,37.404724,18.338013,36.690125,18.992126
	z M32.343323,22.450256c0-0.3125,0.254395-0.566895,0.566895-0.566895s0.566895,0.254395,0.566895,0.566895
	s-0.254395,0.566895-0.566895,0.566895S32.343323,22.762756,32.343323,22.450256z M22.308655,22.450256
	c0-0.3125,0.254395-0.566895,0.566895-0.566895s0.566895,0.254395,0.566895,0.566895s-0.254395,0.566895-0.566895,0.566895
	S22.308655,22.762756,22.308655,22.450256z M37.983948,20.610413v6.771973h-10.09082H17.801819v-6.771973
	c0-0.871643-0.171936-1.719482-0.260254-1.980286c0.300232,0.265442,0.644226,0.568665,0.958801,0.843872
	c0.275696,0.241211,0.368469,0.664551,0.368469,0.850403c0,0.481873-0.061401,0.675232-0.353333,1.042175
	c-0.001526,0.001892,0.065674-0.040344,0.358643-0.040344c0.558289,0,1.11377,0.472778,1.11377,1.124146
	c0,0.661865-0.47345,1.173828-1.096924,1.173828c-0.384766,0-0.537354-0.073608-0.537354-0.073608
	c0.136902,0.989624,1.015015,1.961182,2.282654,1.961182c0.964294,0,1.796692-0.538086,2.239258-1.323853
	c0.442566,0.785767,1.192017,1.323853,2.156311,1.323853c1.345764,0,2.246826-0.862793,2.473572-2.053345
	c0,0-0.2323,0.092163-0.615051,0.092163c-0.63269,0-1.123535-0.455322-1.123535-1.100342
	c0-0.702637,0.509949-1.162415,1.115417-1.162415c0.216858,0,0.332581,0.016907,0.500366,0.059448
	c-0.120789-0.112915-0.230957-0.249268-0.324219-0.401123c-0.165344-0.269165-0.271118-0.48645-0.271118-0.918579
	c0-0.484619,0.344482-0.899536,0.737061-1.37561c0.166504-0.202148,0.262024-0.325684,0.368469-0.481934h0.000122
	c0.106445,0.15625,0.201965,0.279785,0.368469,0.481934c0.392578,0.476074,0.737061,0.890991,0.737061,1.37561
	c0,0.432129-0.105774,0.649414-0.271118,0.918579c-0.093262,0.151855-0.20343,0.288208-0.324219,0.401123
	c0.167786-0.042542,0.283508-0.059448,0.500366-0.059448c0.605469,0,1.115417,0.459778,1.115417,1.162415
	c0,0.64502-0.490845,1.100342-1.123535,1.100342c-0.382751,0-0.615051-0.092163-0.615051-0.092163
	c0.226746,1.190552,1.127808,2.053345,2.473572,2.053345c0.964294,0,1.713745-0.538086,2.156311-1.323853
	c0.442566,0.785767,1.274963,1.323853,2.239258,1.323853c1.267639,0,2.145752-0.971558,2.282654-1.961182
	c0,0-0.152588,0.073608-0.537354,0.073608c-0.623474,0-1.096924-0.511963-1.096924-1.173828
	c0-0.651367,0.555481-1.124146,1.11377-1.124146c0.292969,0,0.360168,0.042236,0.358643,0.040344
	c-0.291931-0.366943-0.353333-0.560303-0.353333-1.042175c0-0.185852,0.092773-0.609192,0.368469-0.850403
	c0.314575-0.275208,0.658569-0.57843,0.958801-0.843872C38.155884,18.89093,37.983948,19.73877,37.983948,20.610413z"/>
</svg>
